<svg xmlns="http://www.w3.org/2000/svg" viewBox="0 0 983.27 637.16" stroke-width="5" fill="none"><defs><style>.a{fill:"none";}.b{fill:"none";}.c,.d{fill:"none";stroke-miterlimit:10;}.c{stroke:#3f3d56;}.d{stroke:#2f2e41;}.e{fill:"none";}.f{fill:"none";}.g{opacity:0.1;isolation:isolate;}</style></defs><title>hero_animation_composition</title><rect class="a" x="230.36" y="238.51" width="260.03" height="129.17" rx="13.52"/><circle class="b" cx="17" cy="23.5" r="17"/><circle class="c" cx="22" cy="17.5" r="17"/><circle class="a" cx="181.43" cy="248.98" r="17"/><circle class="c" cx="186.43" cy="242.98" r="17"/><circle class="b" cx="356" cy="108.5" r="17"/><circle class="c" cx="361" cy="102.5" r="17"/><rect class="b" x="38.72" y="62.98" width="260.03" height="129.17" rx="13.52"/><rect class="c" x="53.92" y="52" width="260.03" height="129.17" rx="13.52"/><rect class="c" x="245.56" y="227.54" width="260.03" height="129.17" rx="13.52"/><path class="d" d="M803.86,232.07q10,5.3,19.61,10.84"/><path class="d" d="M679.42,210.2c29.17,6.31,61,17.2,93.09,32.56a446,446,0,0,1,66.45,39"/><path class="d" d="M652.13,205.53c8.77,1.08,17.89,2.64,27.29,4.67"/><path class="d" d="M566.36,297c-16.19-23.7-21.75-46.08-13.43-63.45,9.2-19.21,33.83-29,67.22-29.76"/><path class="d" d="M907.34,349.91c13.5,21.72,17.69,42.09,10,58.16-6.77,14.15-21.91,23.2-42.75,27.29"/><path class="d" d="M839,281.76a330.36,330.36,0,0,1,38.24,31.7"/><path class="d" d="M557.4,176c26.87-5.77,61.65-4.74,100.55,2.93"/><path class="d" d="M948.59,349.91C960.62,367.48,968,384.49,970,400"/><path class="d" d="M823.47,242.91q18.09,10.47,34.45,21.65"/><path class="b" d="M772.85,262.79H780s6.55,50.57,1.79,55.33-17.85,7.73-19.63,0,0-36.29,0-36.29Z"/><ellipse class="e" cx="726.16" cy="218.77" rx="43.43" ry="50.86"/><path class="f" d="M716.34,228.29s2.38,19.63-4.76,23.79,8.33,28,8.33,28l18.44,4.76,12.49-17.25-2.38-17.85s-14.27-14.27-7.73-27.36Z"/><path class="g" d="M716.34,228.29s2.38,19.63-4.76,23.79,8.33,28,8.33,28l18.44,4.76,12.49-17.25-2.38-17.85s-14.27-14.27-7.73-27.36Z"/><path class="f" d="M689.57,441.39s-7.14,64.84,0,80.31,26.18,58.89,26.18,58.89l-6,12.5,16.06-3.57L732.4,577s-7.73-30.34-8.92-41-10.11-30.34-10.11-30.34L730,434.85Z"/><path class="f" d="M746.08,430.55s.6,65.44,4.76,75.59l-2.38,88.64,13.09,1.74s19-74.36,16.06-92.2.6-82.1.6-82.1Z"/><circle class="f" cx="726.16" cy="213.71" r="22.61"/><path class="b" d="M803.19,438.88s-16.06,10.71-22.6,3-86.86,4.76-97,2.38S689,403.78,689,384.15c0-14.69,5.33-37,8-47.36.9-3.47,1.5-5.59,1.5-5.59s6.11-17.36,5-24.58A6,6,0,0,0,703,305a3.61,3.61,0,0,0-.35-.6c-2.85-3.8-11-31.52-14.19-43.42a54.94,54.94,0,0,1-1.28-5.36c0-1.78,22-7.14,27.51-7.39s7,7.39,7,7.39c1.79,1.19,10.12,22,10.12,22L739.54,258s-.59-4.16-1.19-4.16,8.8-5.62,8.8-5.62,9.64,6.81,15,5.62S780,263.39,780,263.39s-22,55.32-13.08,67.22S803.19,438.88,803.19,438.88Z"/><path class="e" d="M730.62,574.64S720.5,584.76,720.5,586l-8.32-3.57s-3.57,13.09-4.17,14.87-10.71,17.85-20.82,25,0,16.06,8.92,14.27,31.53-22,31.53-22,15.47,0,20.82-11.9C748.46,602.6,734.19,573.45,730.62,574.64Z"/><path class="e" d="M760.36,591.8s-15.28-11.1-16.27-.79-1,32.92-1,32.92S738.35,638.8,753.22,637s16.07-5.94,16.07-5.94l-7.14-28.56V590Z"/><path class="g" d="M702.66,304.43c-2.85-3.8-11-31.52-14.19-43.42h2.88s7.25,28.35,11.66,44A3.61,3.61,0,0,0,702.66,304.43Z"/><path class="g" d="M741.92,343.7s-8.33.59-38.67-5.36a59,59,0,0,1-6.26-1.55c.9-3.48,1.5-5.59,1.5-5.59s6.11-17.36,5-24.58c1.43,5,2.49,8.37,2.78,8.52,1.19.6,39.26,7.14,44.61,9.52S741.92,343.7,741.92,343.7Z"/><path class="g" d="M752.63,265.84s16.41-2,17.42.63,5.18,28.38,7,31.67,2.38,23.74-4.76,24.4-16.66-6.6-14.87-12.53S752.63,265.84,752.63,265.84Z"/><path class="f" d="M744.3,320.5s25,3,29.15,0,21.42-3,17.85,5.35-34.51,8.92-34.51,8.92H739Z"/><path class="b" d="M691.35,256.84h-4.16s-8.33,1.79-7.14,28-7.14,43.43,23.2,49.38,38.67,5.35,38.67,5.35,14.28-16.66,8.92-19-43.42-8.93-44.61-9.52S691.35,256.84,691.35,256.84Z"/><path class="f" d="M769.6,268.58s-10.43-39.1-18.76-39.1S733,231.26,740.14,239s16.06,16.06,16.65,20.22a56.1,56.1,0,0,0,3,10.11Z"/><path class="b" d="M755,265.84s16.41-2,17.42.63,5.18,28.38,7,31.67,2.38,23.74-4.76,24.4S758,315.94,759.77,310,755,265.84,755,265.84Z"/><circle class="e" cx="720.21" cy="192.3" r="21.42"/><path class="d" d="M806.51,434.39c-33.24-5.48-70.84-17.38-108.76-35.55C654.56,378.16,618,352.72,591.9,327"/><path class="d" d="M671.76,410a537.42,537.42,0,0,1-79.86-50.36"/><circle class="b" cx="461.58" cy="133.64" r="35.65"/><circle class="d" cx="469.94" cy="119.12" r="35.65"/><circle class="a" cx="957.17" cy="262.39" r="20.74"/><circle class="d" cx="962.03" cy="253.94" r="20.74"/><circle class="a" cx="578.84" cy="478.57" r="29.81"/><circle class="d" cx="585.84" cy="466.43" r="29.81"/><circle class="b" cx="792.91" cy="181.71" r="9.4"/><circle class="b" cx="818.5" cy="165.04" r="10.57"/><path class="b" d="M842.41,122.18a58.78,58.78,0,1,1,27.28,21.91,19,19,0,1,1-27.28-21.91Z"/></svg>